<svg width="316" height="44" viewBox="0 0 316 44" fill="none" xmlns="http://www.w3.org/2000/svg">
<g filter="url(#filter0_d_2_2)">
<path d="M5.752 4.472C6.264 4.152 6.84 3.992 7.48 3.992C8.12 3.992 8.52 4.36 8.68 5.096C8.712 8.808 8.776 14.36 8.872 21.752C8.872 26.264 8.744 30.088 8.488 33.224C8.424 33.704 8.12 34.136 7.576 34.52C7.064 34.872 6.536 35.048 5.992 35.048C5.096 35.048 4.648 34.584 4.648 33.656C4.968 30.456 5.128 26.488 5.128 21.752L4.84 5.624C4.968 5.176 5.272 4.792 5.752 4.472ZM15.9449 33.512L15.4169 14.024C15.4169 13.416 15.6249 12.92 16.0409 12.536C16.4569 12.152 16.8729 11.96 17.2889 11.96C18.3129 11.96 18.9049 12.392 19.0649 13.256C19.1929 14.12 19.2569 15.016 19.2569 15.944C20.9849 13.672 23.1449 12.536 25.7369 12.536C29.7049 12.536 31.6889 17.064 31.6889 26.12C31.6889 26.952 31.6889 28.216 31.6889 29.912C31.6889 31.576 31.5929 32.792 31.4009 33.56C31.1769 34.52 30.4889 35 29.3369 35C28.5689 35 28.1849 34.488 28.1849 33.464L28.2329 30.776C28.2329 27.064 28.1049 24.536 27.8489 23.192C27.6249 21.816 27.4009 20.728 27.1769 19.928C26.6329 18.2 25.7529 17.336 24.5369 17.336C22.9369 17.336 21.8169 17.912 21.1769 19.064C20.4729 20.312 20.0569 21.784 19.9289 23.48C19.7049 26.456 19.5929 29.608 19.5929 32.936C19.5929 33.576 19.3529 34.088 18.8729 34.472C18.3929 34.856 17.8169 35.048 17.1449 35.048C16.3449 35.048 15.9449 34.536 15.9449 33.512ZM57.8305 3.224C59.9105 3.224 61.6705 3.576 63.1105 4.28C64.5825 4.984 65.3185 5.88 65.3185 6.968C65.3185 7.448 65.1905 7.864 64.9345 8.216C64.7105 8.568 64.3585 8.744 63.8785 8.744C63.4305 8.744 62.4385 8.392 60.9025 7.688C59.3665 6.952 57.9585 6.584 56.6785 6.584C55.4305 6.584 54.1345 6.984 52.7905 7.784C51.4465 8.584 50.7745 9.56 50.7745 10.712C50.7745 12.28 51.5905 13.432 53.2225 14.168C54.4385 14.712 56.1825 15.208 58.4545 15.656C60.7265 16.072 62.5825 16.952 64.0225 18.296C65.4625 19.608 66.1825 21.608 66.1825 24.296C66.1825 28.392 64.9505 31.416 62.4865 33.368C61.1105 34.456 59.1585 35 56.6305 35C54.1345 35 51.6385 34.312 49.1425 32.936C47.5105 32.072 46.6945 31.208 46.6945 30.344C46.6945 30.024 46.8225 29.672 47.0785 29.288C47.3665 28.904 47.7505 28.584 48.2305 28.328C48.7105 28.072 49.1425 28.04 49.5265 28.232C49.9425 28.392 50.5985 28.696 51.4945 29.144C52.3905 29.592 53.0465 29.896 53.4625 30.056C54.8065 30.568 56.0705 30.824 57.2545 30.824C58.4385 30.824 59.5745 30.248 60.6625 29.096C61.7825 27.912 62.3425 26.472 62.3425 24.776C62.3425 22.536 61.2225 20.968 58.9825 20.072C57.8945 19.624 56.6625 19.288 55.2865 19.064C52.4385 18.552 50.2945 17.704 48.8545 16.52C47.4145 15.304 46.6945 13.48 46.6945 11.048C46.6945 8.616 47.7345 6.712 49.8145 5.336C51.8945 3.928 54.5665 3.224 57.8305 3.224ZM75.8298 12.776C77.5258 12.776 79.1418 13.272 80.6778 14.264C82.2138 15.256 82.9818 16.488 82.9818 17.96C82.9818 19.4 82.3578 20.808 81.1098 22.184C79.8618 23.528 78.1978 24.344 76.1178 24.632C75.2218 24.76 73.8778 24.824 72.0858 24.824C72.4378 27.544 73.1258 29.336 74.1497 30.2C74.4698 30.552 74.9018 30.728 75.4458 30.728C77.4298 30.728 79.0938 30.104 80.4378 28.856C81.7818 27.576 82.7418 26.936 83.3178 26.936C83.5738 26.936 83.9578 27.176 84.4698 27.656C84.9818 28.136 85.2378 28.584 85.2378 29C85.2378 29.832 84.2298 31.032 82.2138 32.6C81.3178 33.336 80.2298 33.96 78.9498 34.472C77.7018 34.952 76.5338 35.192 75.4458 35.192C72.6618 35.192 70.6138 33.4 69.3018 29.816C68.4698 27.608 68.0538 25.176 68.0538 22.52C68.0538 19.864 68.6778 17.576 69.9258 15.656C71.1738 13.736 73.1418 12.776 75.8298 12.776ZM76.0698 16.088C74.8538 16.088 73.8138 16.776 72.9498 18.152C72.6298 18.632 72.3258 19.72 72.0378 21.416C76.5178 21.416 78.7578 20.312 78.7578 18.104C78.7578 16.76 77.8618 16.088 76.0698 16.088ZM101.435 12.584C102.843 12.584 103.547 13.784 103.547 16.184C103.547 16.44 103.547 16.712 103.547 17L103.451 20.36C103.419 21.416 103.403 22.456 103.403 23.48L104.123 34.328C104.123 35.128 103.307 35.528 101.675 35.528C101.579 35.528 101.339 35.528 100.955 35.528C100.603 35.528 100.347 35.384 100.187 35.096C100.059 34.808 100.043 34.456 100.139 34.04C100.267 33.624 100.235 33.16 100.043 32.648C98.5708 34.216 96.6188 35 94.1868 35C89.6748 35 87.4188 31.512 87.4188 24.536C87.4188 20.664 88.1388 17.736 89.5788 15.752C91.0508 13.768 93.1468 12.776 95.8668 12.776C97.1468 12.776 98.4268 13 99.7068 13.448C100.123 12.872 100.699 12.584 101.435 12.584ZM96.4428 16.952C94.6188 16.952 93.2588 17.48 92.3628 18.536C91.4668 19.592 91.0188 21.528 91.0188 24.344C91.0188 29.08 92.2988 31.448 94.8588 31.448C95.5308 31.448 96.2668 31.144 97.0668 30.536C97.8988 29.928 98.4748 29.24 98.7948 28.472C99.4028 26.744 99.7068 24.856 99.7068 22.808C99.7068 20.76 99.4508 19.272 98.9388 18.344C98.4588 17.416 97.6268 16.952 96.4428 16.952ZM107.656 18.68C107.656 16.792 108.328 15.288 109.672 14.168C111.016 13.048 112.568 12.488 114.328 12.488C116.12 12.488 117.832 12.808 119.464 13.448C121.096 14.088 121.912 14.936 121.912 15.992C121.912 16.536 121.704 16.968 121.288 17.288C120.872 17.608 120.504 17.768 120.184 17.768C119.896 17.768 119.656 17.768 119.464 17.768C119.304 17.736 118.664 17.432 117.544 16.856C116.456 16.28 115.448 15.992 114.52 15.992C113.592 15.992 112.792 16.232 112.12 16.712C111.48 17.16 111.16 17.832 111.16 18.728C111.16 19.624 111.528 20.328 112.264 20.84C113.032 21.352 114.36 21.8 116.248 22.184C118.136 22.536 119.576 23.048 120.568 23.72C121.592 24.392 122.104 25.64 122.104 27.464C122.104 30.12 121.4 32.008 119.992 33.128C118.616 34.216 116.936 34.76 114.952 34.76C112.968 34.76 111.272 34.488 109.864 33.944C108.488 33.4 107.8 32.584 107.8 31.496C107.8 30.248 108.424 29.624 109.672 29.624C109.992 29.624 110.696 29.848 111.784 30.296C112.872 30.744 113.944 30.968 115 30.968C116.088 30.968 116.904 30.632 117.448 29.96C118.024 29.256 118.312 28.456 118.312 27.56C118.312 26.664 117.944 26.024 117.208 25.64C116.472 25.224 115.352 24.888 113.848 24.632C112.344 24.376 111.24 24.104 110.536 23.816C108.616 23.048 107.656 21.336 107.656 18.68ZM133.804 12.632C136.108 12.632 137.996 13.736 139.468 15.944C140.972 18.152 141.724 20.808 141.724 23.912C141.724 26.984 140.956 29.608 139.42 31.784C137.916 33.96 135.9 35.048 133.372 35.048C130.876 35.048 128.86 33.944 127.324 31.736C125.788 29.496 125.02 27.016 125.02 24.296C125.02 20.808 125.724 18.024 127.132 15.944C128.636 13.736 130.86 12.632 133.804 12.632ZM133.228 16.568C131.884 16.568 130.78 17.272 129.916 18.68C129.052 20.088 128.62 21.576 128.62 23.144C128.62 25.576 129.1 27.432 130.06 28.712C131.02 29.992 132.108 30.632 133.324 30.632C135.5 30.632 136.892 29.688 137.5 27.8C137.756 26.904 137.884 25.784 137.884 24.44C137.884 19.192 136.332 16.568 133.228 16.568ZM146.492 33.512L145.964 14.024C145.964 13.416 146.172 12.92 146.588 12.536C147.004 12.152 147.42 11.96 147.836 11.96C148.86 11.96 149.452 12.392 149.612 13.256C149.74 14.12 149.804 15.016 149.804 15.944C151.532 13.672 153.692 12.536 156.284 12.536C160.252 12.536 162.236 17.064 162.236 26.12C162.236 26.952 162.236 28.216 162.236 29.912C162.236 31.576 162.14 32.792 161.948 33.56C161.724 34.52 161.036 35 159.884 35C159.116 35 158.732 34.488 158.732 33.464L158.78 30.776C158.78 27.064 158.652 24.536 158.396 23.192C158.172 21.816 157.948 20.728 157.724 19.928C157.18 18.2 156.3 17.336 155.084 17.336C153.484 17.336 152.364 17.912 151.724 19.064C151.02 20.312 150.604 21.784 150.476 23.48C150.252 26.456 150.14 29.608 150.14 32.936C150.14 33.576 149.9 34.088 149.42 34.472C148.94 34.856 148.364 35.048 147.692 35.048C146.892 35.048 146.492 34.536 146.492 33.512Z" fill="black"/>
<path d="M178.345 30.104C178.121 26.808 178.009 22.36 178.009 16.76C178.009 11.128 178.089 7.48 178.249 5.816C178.409 4.792 179.113 4.12 180.361 3.8C181.609 3.448 183.257 3.272 185.305 3.272C188.313 3.272 190.841 3.928 192.889 5.24C194.969 6.52 196.009 8.424 196.009 10.952C196.009 13.032 195.721 14.776 195.145 16.184C194.569 17.56 193.849 18.584 192.985 19.256C191.577 20.344 189.497 20.888 186.745 20.888C185.561 20.888 184.009 20.728 182.089 20.408C182.249 26.808 182.313 30.84 182.281 32.504C182.249 34.168 181.689 35 180.601 35C179.897 35 179.449 34.872 179.257 34.616C179.065 34.36 178.937 34.184 178.873 34.088C178.809 33.96 178.745 33.784 178.681 33.56C178.617 33.336 178.569 33.16 178.537 33.032C178.505 32.872 178.473 32.648 178.441 32.36C178.441 32.072 178.425 31.848 178.393 31.688C178.361 31.208 178.345 30.68 178.345 30.104ZM192.025 11.096C192.025 9.784 191.321 8.76 189.913 8.024C188.505 7.256 187.001 6.872 185.401 6.872C183.801 6.872 182.681 7.016 182.041 7.304C181.913 9.192 181.849 10.936 181.849 12.536C181.849 14.104 181.913 15.528 182.041 16.808C182.905 16.904 183.497 16.984 183.817 17.048C184.649 17.144 185.353 17.192 185.929 17.192C186.537 17.192 186.937 17.192 187.129 17.192C187.353 17.16 187.753 17.112 188.329 17.048C188.937 16.952 189.369 16.808 189.625 16.616C189.881 16.424 190.201 16.168 190.585 15.848C190.969 15.528 191.241 15.16 191.401 14.744C191.817 13.592 192.025 12.376 192.025 11.096ZM206.735 27.992L206.783 32.936C206.783 33.512 206.511 34.04 205.967 34.52C205.455 35 204.943 35.24 204.431 35.24C203.695 35.24 203.231 34.664 203.039 33.512C203.007 33.256 202.879 30.92 202.655 26.504C202.431 22.056 201.999 18.568 201.359 16.04C201.071 14.824 200.927 14.104 200.927 13.88C200.927 12.824 201.567 12.296 202.847 12.296C203.391 12.296 203.823 12.504 204.143 12.92C204.463 13.336 204.655 13.768 204.719 14.216C204.815 14.632 204.895 15.208 204.959 15.944C205.023 16.68 205.071 17.144 205.103 17.336C205.775 15.736 206.783 14.536 208.127 13.736C209.471 12.936 210.943 12.536 212.543 12.536C215.167 12.536 216.479 13.208 216.479 14.552C216.479 15.224 216.239 15.768 215.759 16.184C215.311 16.568 214.783 16.76 214.175 16.76C211.455 16.76 209.535 17.624 208.415 19.352C207.295 21.08 206.735 23.96 206.735 27.992ZM227.508 12.632C229.812 12.632 231.7 13.736 233.172 15.944C234.676 18.152 235.428 20.808 235.428 23.912C235.428 26.984 234.66 29.608 233.124 31.784C231.62 33.96 229.604 35.048 227.076 35.048C224.58 35.048 222.564 33.944 221.028 31.736C219.492 29.496 218.724 27.016 218.724 24.296C218.724 20.808 219.428 18.024 220.836 15.944C222.34 13.736 224.564 12.632 227.508 12.632ZM226.932 16.568C225.588 16.568 224.484 17.272 223.62 18.68C222.756 20.088 222.324 21.576 222.324 23.144C222.324 25.576 222.804 27.432 223.764 28.712C224.724 29.992 225.812 30.632 227.028 30.632C229.204 30.632 230.596 29.688 231.204 27.8C231.46 26.904 231.588 25.784 231.588 24.44C231.588 19.192 230.036 16.568 226.932 16.568ZM249.843 12.536L249.795 3.272C249.795 1.544 250.339 0.679998 251.427 0.679998C252.547 0.679998 253.171 1.16 253.299 2.12C253.363 2.536 253.443 5.048 253.539 9.656C253.635 14.264 253.779 18.584 253.971 22.616C254.195 26.648 254.307 30.408 254.307 33.896C254.307 34.856 253.587 35.336 252.147 35.336C251.187 35.336 250.707 34.664 250.707 33.32C249.331 34.408 247.699 34.952 245.811 34.952C243.411 34.952 241.459 34.056 239.955 32.264C238.483 30.472 237.747 28.264 237.747 25.64C237.747 23.016 238.275 20.568 239.331 18.296C240.419 15.992 242.099 14.344 244.371 13.352C245.779 12.744 247.139 12.44 248.451 12.44C248.931 12.44 249.395 12.472 249.843 12.536ZM250.083 19.112C249.859 18.408 249.587 17.88 249.267 17.528C248.947 17.144 248.595 16.92 248.211 16.856C247.859 16.76 247.427 16.712 246.915 16.712C246.403 16.712 245.779 16.904 245.043 17.288C244.307 17.672 243.683 18.296 243.171 19.16C242.147 20.888 241.635 22.712 241.635 24.632C241.635 26.52 242.003 28.072 242.739 29.288C243.507 30.472 244.579 31.064 245.955 31.064C247.363 31.064 248.467 30.376 249.267 29C250.067 27.624 250.467 25.864 250.467 23.72C250.467 21.32 250.339 19.784 250.083 19.112ZM256.978 14.456C257.106 13.912 257.378 13.464 257.794 13.112C258.21 12.728 258.626 12.536 259.042 12.536C259.49 12.536 259.826 12.616 260.05 12.776C260.306 12.936 260.45 13.08 260.482 13.208C260.546 13.336 260.61 13.56 260.674 13.88C260.482 16.376 260.386 18.632 260.386 20.648C260.386 22.632 260.626 24.92 261.106 27.512C261.586 30.072 262.114 31.352 262.69 31.352C263.554 31.352 264.642 30.872 265.954 29.912C267.298 28.952 268.258 27.944 268.834 26.888C268.45 22.28 268.258 18.328 268.258 15.032C268.258 14.36 268.466 13.784 268.882 13.304C269.33 12.824 269.858 12.584 270.466 12.584C271.458 12.584 271.954 13.256 271.954 14.6C271.954 16.872 272.114 20.248 272.434 24.728C272.786 29.208 273.138 32.056 273.49 33.272C273.554 33.528 273.586 33.832 273.586 34.184C273.586 34.504 273.362 34.808 272.914 35.096C272.498 35.416 271.938 35.576 271.234 35.576C270.562 35.576 270.114 35.192 269.89 34.424C269.826 33.784 269.666 32.824 269.41 31.544C267.17 33.88 264.914 35.048 262.642 35.048C261.586 35.048 260.642 34.648 259.81 33.848C258.978 33.048 258.322 31.96 257.842 30.584C257.01 27.928 256.594 25.432 256.594 23.096C256.594 20.76 256.722 17.88 256.978 14.456ZM275.621 23.768C275.621 21.624 276.181 19.672 277.301 17.912C278.453 16.152 279.909 14.84 281.669 13.976C283.429 13.08 285.141 12.632 286.805 12.632C288.469 12.632 289.797 12.84 290.789 13.256C291.813 13.64 292.325 14.168 292.325 14.84C292.325 15.48 292.133 16.136 291.749 16.808C291.397 17.448 290.917 17.768 290.309 17.768C290.085 17.768 289.461 17.592 288.437 17.24C287.445 16.856 286.805 16.664 286.517 16.664C284.661 16.664 283.077 17.352 281.765 18.728C280.453 20.072 279.797 21.864 279.797 24.104C279.797 26.344 280.149 28.024 280.853 29.144C281.589 30.232 282.837 30.776 284.597 30.776C285.301 30.776 286.501 30.376 288.197 29.576C289.925 28.744 290.997 28.328 291.413 28.328C291.829 28.328 292.165 28.456 292.421 28.712C292.677 28.968 292.805 29.288 292.805 29.672C292.805 30.44 292.309 31.256 291.317 32.12C290.357 32.952 289.157 33.656 287.717 34.232C286.277 34.776 284.981 35.048 283.829 35.048C281.269 35.048 279.253 34.04 277.781 32.024C276.341 30.008 275.621 27.256 275.621 23.768ZM301.814 12.776C303.51 12.776 305.126 13.272 306.662 14.264C308.198 15.256 308.966 16.488 308.966 17.96C308.966 19.4 308.342 20.808 307.094 22.184C305.846 23.528 304.182 24.344 302.102 24.632C301.206 24.76 299.862 24.824 298.07 24.824C298.422 27.544 299.11 29.336 300.134 30.2C300.454 30.552 300.886 30.728 301.43 30.728C303.414 30.728 305.078 30.104 306.422 28.856C307.766 27.576 308.726 26.936 309.302 26.936C309.558 26.936 309.942 27.176 310.454 27.656C310.966 28.136 311.222 28.584 311.222 29C311.222 29.832 310.214 31.032 308.198 32.6C307.302 33.336 306.214 33.96 304.934 34.472C303.686 34.952 302.518 35.192 301.43 35.192C298.646 35.192 296.598 33.4 295.286 29.816C294.454 27.608 294.038 25.176 294.038 22.52C294.038 19.864 294.662 17.576 295.91 15.656C297.158 13.736 299.126 12.776 301.814 12.776ZM302.054 16.088C300.838 16.088 299.798 16.776 298.934 18.152C298.614 18.632 298.31 19.72 298.022 21.416C302.502 21.416 304.742 20.312 304.742 18.104C304.742 16.76 303.846 16.088 302.054 16.088Z" fill="#7A871E"/>
</g>
<defs>
<filter id="filter0_d_2_2" x="0.648003" y="0.679993" width="314.574" height="42.896" filterUnits="userSpaceOnUse" color-interpolation-filters="sRGB">
<feFlood flood-opacity="0" result="BackgroundImageFix"/>
<feColorMatrix in="SourceAlpha" type="matrix" values="0 0 0 0 0 0 0 0 0 0 0 0 0 0 0 0 0 0 127 0" result="hardAlpha"/>
<feOffset dy="4"/>
<feGaussianBlur stdDeviation="2"/>
<feComposite in2="hardAlpha" operator="out"/>
<feColorMatrix type="matrix" values="0 0 0 0 0 0 0 0 0 0 0 0 0 0 0 0 0 0 0.25 0"/>
<feBlend mode="normal" in2="BackgroundImageFix" result="effect1_dropShadow_2_2"/>
<feBlend mode="normal" in="SourceGraphic" in2="effect1_dropShadow_2_2" result="shape"/>
</filter>
</defs>
</svg>
